<svg width="373" height="64" viewBox="0 0 373 64" fill="none" xmlns="http://www.w3.org/2000/svg">
<path d="M75.2939 33.3648C76.7342 44.7111 54.6957 43.6595 54.6957 43.6595C54.6957 43.6595 54.9666 49.8585 72.2301 50.378C89.4937 50.8992 104.192 32.1769 104.74 37.1372C105.692 45.7682 92.124 58.8255 71.2904 62.9049C49.435 67.1841 32.9112 50.9392 19.5745 47.6027C6.23774 44.2661 0 46.4929 0 46.4929C15.1787 17.8228 49.123 32.1333 56.0295 33.1741C62.9361 34.2148 75.2939 33.3648 75.2939 33.3648Z" fill="#042B57"/>
<path d="M139.646 7.02683C140.198 6.95303 140.797 6.88433 141.442 6.82071C142.087 6.7571 142.687 6.72656 143.238 6.72656C143.765 6.72656 144.338 6.7571 144.956 6.82071C145.574 6.88178 146.147 6.95303 146.674 7.02683L152.281 20.9918L158.086 7.02683C158.613 6.95303 159.146 6.88433 159.686 6.82071C160.224 6.7571 160.757 6.72656 161.287 6.72656C161.838 6.72656 162.405 6.7571 162.983 6.82071C163.561 6.88178 164.129 6.95303 164.68 7.02683L166.021 33.8295C165.601 33.9033 165.132 33.9796 164.619 34.0534C164.105 34.1298 163.428 34.1679 162.585 34.1679C161.664 34.1679 160.572 34.0534 159.309 33.8295L158.755 18.2894L154.411 28.5392C153.938 28.613 153.464 28.6766 152.99 28.7249C152.517 28.7758 152.083 28.8013 151.687 28.8013C151.291 28.8013 150.884 28.7835 150.464 28.7453C150.041 28.7097 149.607 28.6384 149.161 28.5392L145.291 18.4421L144.857 33.832C143.752 34.056 142.697 34.1705 141.699 34.1705C140.778 34.1705 139.711 34.056 138.501 33.832L139.646 7.02683Z" fill="#042B57"/>
<path d="M169.69 20.5412C169.69 18.5386 169.933 16.681 170.421 14.9659C170.908 13.2534 171.657 11.7698 172.671 10.5179C173.683 9.26847 174.973 8.28624 176.538 7.57119C178.104 6.85615 179.967 6.50244 182.124 6.50244C184.284 6.50244 186.138 6.85869 187.69 7.57119C189.243 8.28369 190.527 9.26592 191.539 10.5179C192.553 11.7698 193.303 13.2534 193.79 14.9659C194.277 16.681 194.52 18.5386 194.52 20.5412C194.52 22.5438 194.277 24.3887 193.79 26.0783C193.303 27.768 192.553 29.2311 191.539 30.4704C190.525 31.7096 189.243 32.674 187.69 33.3611C186.138 34.0481 184.284 34.3917 182.124 34.3917C179.967 34.3917 178.104 34.0481 176.538 33.3611C174.973 32.6715 173.683 31.7071 172.671 30.4704C171.657 29.2311 170.908 27.768 170.421 26.0783C169.931 24.3887 169.69 22.5438 169.69 20.5412ZM187.177 20.5412C187.177 15.0855 185.507 12.3577 182.164 12.3577C178.744 12.3577 177.034 15.0855 177.034 20.5412C177.034 23.2691 177.448 25.3022 178.275 26.6407C179.105 27.9792 180.387 28.6484 182.124 28.6484C185.493 28.6484 187.177 25.946 187.177 20.5412Z" fill="#042B57"/>
<path d="M205.14 20.5031C205.14 25.8087 207.481 28.4602 212.167 28.4602C213.011 28.4602 213.805 28.3864 214.555 28.2338C215.304 28.0836 216.219 27.8342 217.301 27.4831C218.17 29.2847 218.748 31.1372 219.037 33.038C218.275 33.3154 217.563 33.5393 216.904 33.7149C216.246 33.8905 215.615 34.0203 215.01 34.1093C214.405 34.1958 213.805 34.2595 213.214 34.2976C212.622 34.3358 212.01 34.3536 211.378 34.3536C209.141 34.3536 207.174 34.0075 205.474 33.3205C203.777 32.6309 202.356 31.6741 201.211 30.4476C200.065 29.2211 199.204 27.7579 198.626 26.0555C198.045 24.3532 197.756 22.5007 197.756 20.5006C197.756 18.5005 198.058 16.6404 198.663 14.9278C199.268 13.2128 200.143 11.7318 201.286 10.4798C202.431 9.22785 203.847 8.25326 205.53 7.55094C207.214 6.85116 209.122 6.5 211.255 6.5C212.518 6.5 213.717 6.58653 214.849 6.76211C215.981 6.93769 217.244 7.28885 218.639 7.81304C218.585 8.83853 218.387 9.83348 218.047 10.7979C217.705 11.7623 217.349 12.6046 216.982 13.3298C216.455 13.1568 215.976 13.0066 215.542 12.8794C215.106 12.7547 214.694 12.6529 214.298 12.5791C213.902 12.5028 213.508 12.4468 213.115 12.4112C212.719 12.373 212.299 12.3552 211.852 12.3552C209.719 12.3552 208.067 13.0372 206.895 14.4011C205.723 15.765 205.14 17.8007 205.14 20.5031Z" fill="#042B57"/>
<path d="M227.722 12.8081H221.13C220.892 11.7317 220.774 10.7418 220.774 9.84102C220.774 9.01401 220.892 8.05214 221.13 6.95032H241.304C241.408 7.5025 241.486 8.01397 241.539 8.48982C241.593 8.96567 241.62 9.41607 241.62 9.84102C241.62 10.668 241.513 11.6554 241.304 12.8081H234.712V33.8293C233.315 34.0532 232.159 34.1677 231.239 34.1677C230.264 34.1677 229.092 34.0532 227.725 33.8293V12.8081H227.722Z" fill="#042B57"/>
<path d="M242.645 20.5412C242.645 18.5386 242.889 16.681 243.376 14.9659C243.863 13.2534 244.612 11.7698 245.626 10.5179C246.638 9.26847 247.928 8.28624 249.494 7.57119C251.059 6.85869 252.922 6.50244 255.079 6.50244C257.239 6.50244 259.093 6.85869 260.645 7.57119C262.198 8.28369 263.482 9.26592 264.494 10.5179C265.508 11.7698 266.258 13.2534 266.745 14.9659C267.232 16.681 267.475 18.5386 267.475 20.5412C267.475 22.5438 267.232 24.3887 266.745 26.0783C266.258 27.768 265.508 29.2311 264.494 30.4704C263.48 31.7096 262.198 32.674 260.645 33.3611C259.093 34.0481 257.239 34.3917 255.079 34.3917C252.922 34.3917 251.059 34.0481 249.494 33.3611C247.928 32.6715 246.638 31.7071 245.626 30.4704C244.612 29.2311 243.863 27.768 243.376 26.0783C242.889 24.3887 242.645 22.5438 242.645 20.5412ZM260.134 20.5412C260.134 15.0855 258.464 12.3577 255.122 12.3577C251.701 12.3577 249.991 15.0855 249.991 20.5412C249.991 23.2691 250.406 25.3022 251.233 26.6407C252.063 27.9792 253.345 28.6484 255.082 28.6484C258.448 28.6484 260.134 25.946 260.134 20.5412Z" fill="#042B57"/>
<path d="M291.441 26.0605C291.441 27.712 291.125 29.0759 290.494 30.1523C289.862 31.2287 288.995 32.0811 287.887 32.7046C286.782 33.3306 285.465 33.7682 283.94 34.0202C282.411 34.2695 280.755 34.3942 278.964 34.3942C277.543 34.3942 276.267 34.3433 275.135 34.2441C274.003 34.1448 272.78 34.0202 271.463 33.8675V7.02664C272.464 6.8765 273.556 6.75182 274.741 6.65258C275.924 6.55334 277.308 6.50244 278.887 6.50244C280.386 6.50244 281.788 6.62205 283.091 6.8587C284.395 7.09789 285.532 7.49739 286.506 8.05976C287.48 8.62212 288.251 9.3728 288.816 10.3118C289.38 11.2507 289.664 12.4315 289.664 13.859C289.664 15.0346 289.388 16.1059 288.834 17.0678C288.28 18.0322 287.585 18.7752 286.742 19.2994C287.346 19.5259 287.933 19.8211 288.497 20.1824C289.062 20.5463 289.562 20.9967 289.996 21.5336C290.432 22.0731 290.777 22.7169 291.042 23.4675C291.307 24.2207 291.441 25.0834 291.441 26.0605ZM278.293 17.2764H279.398C280.53 17.2764 281.411 17.0576 282.042 16.6199C282.674 16.1822 282.99 15.4239 282.99 14.3476C282.99 13.8208 282.877 13.3831 282.655 13.0345C282.43 12.6834 282.149 12.4085 281.807 12.2075C281.464 12.0065 281.081 11.8691 280.661 11.7953C280.238 11.7189 279.832 11.6808 279.438 11.6808C279.28 11.6808 279.088 11.6808 278.865 11.6808C278.641 11.6808 278.451 11.6935 278.293 11.7189V17.2764ZM278.293 22.6049V28.9105C278.477 28.936 278.708 28.9538 278.983 28.9665C279.261 28.9792 279.62 28.9843 280.07 28.9843C280.57 28.9843 281.076 28.9334 281.59 28.8342C282.104 28.7349 282.572 28.5645 282.992 28.3278C283.415 28.0886 283.75 27.7654 284.001 27.3532C284.25 26.9384 284.376 26.4219 284.376 25.7959C284.376 24.5948 283.961 23.7627 283.131 23.2996C282.302 22.8365 281.231 22.6049 279.914 22.6049H278.293Z" fill="#042B57"/>
<path d="M309.995 19.8645C309.995 20.7398 309.875 21.717 309.639 22.7908H302.02V28.1218H311.93C312.168 29.1728 312.286 30.1245 312.286 30.9744C312.286 31.9006 312.168 32.8879 311.93 33.9389H295.032V6.953H311.692C311.796 7.50519 311.874 8.01666 311.927 8.49251C311.981 8.96835 312.008 9.41875 312.008 9.84371C312.008 10.6707 311.901 11.658 311.692 12.8108H302.02V16.9407H309.639C309.875 18.0374 309.995 19.0146 309.995 19.8645Z" fill="#042B57"/>
<path d="M342.009 34.1679C341.035 34.1679 339.863 34.0534 338.495 33.8295V22.8697H331.507V33.8295C330.113 34.0534 328.954 34.1679 328.033 34.1679C327.059 34.1679 325.887 34.0534 324.52 33.8295V7.02683C325.231 6.92759 325.874 6.85379 326.454 6.8029C327.035 6.75201 327.546 6.72656 327.993 6.72656C328.467 6.72656 329.002 6.75201 329.594 6.8029C330.185 6.85379 330.825 6.92759 331.507 7.02683V16.9738H338.495V7.02683C339.207 6.92759 339.844 6.85379 340.408 6.8029C340.976 6.75201 341.495 6.72656 341.969 6.72656C342.442 6.72656 342.978 6.75201 343.569 6.8029C344.161 6.85379 344.8 6.92759 345.483 7.02683V33.8295C344.088 34.0534 342.932 34.1679 342.009 34.1679Z" fill="#042B57"/>
<path d="M354.879 33.8651C354.274 33.9669 353.72 34.0407 353.22 34.0916C352.719 34.1425 352.232 34.168 351.761 34.168C351.287 34.168 350.741 34.1374 350.123 34.0738C349.505 34.0102 348.812 33.9186 348.052 33.7939L356.894 6.99376C357.579 6.91742 358.216 6.85635 358.808 6.80546C359.399 6.75457 359.999 6.72913 360.603 6.72913C361.104 6.72913 361.65 6.75457 362.241 6.80546C362.833 6.85635 363.512 6.91742 364.275 6.99376L373 33.8321C371.498 34.056 370.184 34.1705 369.052 34.1705C368.525 34.1705 368.001 34.145 367.473 34.0942C366.946 34.0433 366.381 33.9695 365.777 33.8677L364.278 28.6512C363.542 28.8522 362.835 29.0023 362.166 29.1016C361.495 29.2034 360.831 29.2517 360.173 29.2517C359.568 29.2517 358.949 29.2085 358.318 29.1194C357.686 29.0329 357.028 28.9006 356.343 28.725L354.879 33.8651ZM360.405 14.0475L357.761 23.6942C358.208 23.8189 358.631 23.9181 359.024 23.9945C359.42 24.0708 359.827 24.1065 360.247 24.1065C360.694 24.1065 361.136 24.0759 361.57 24.0123C362.006 23.9512 362.458 23.8571 362.932 23.7324L360.405 14.0475Z" fill="#042B57"/>
<path d="M159.325 55.8044C159.325 54.784 159.448 53.8374 159.697 52.9621C159.946 52.0893 160.326 51.3335 160.845 50.6974C161.361 50.0587 162.017 49.5599 162.815 49.196C163.612 48.8321 164.562 48.6489 165.662 48.6489C166.762 48.6489 167.707 48.8296 168.499 49.196C169.288 49.5599 169.944 50.0587 170.461 50.6974C170.977 51.3335 171.357 52.0893 171.609 52.9621C171.858 53.8349 171.981 54.7815 171.981 55.8044C171.981 56.8248 171.858 57.7638 171.609 58.6239C171.36 59.484 170.977 60.2321 170.461 60.8632C169.944 61.4943 169.291 61.9854 168.499 62.3365C167.707 62.6877 166.762 62.8633 165.662 62.8633C164.562 62.8633 163.615 62.6877 162.815 62.3365C162.017 61.9854 161.359 61.4943 160.845 60.8632C160.328 60.2321 159.946 59.484 159.697 58.6239C159.448 57.7638 159.325 56.8248 159.325 55.8044ZM168.237 55.8044C168.237 53.0257 167.386 51.6338 165.681 51.6338C163.936 51.6338 163.066 53.0232 163.066 55.8044C163.066 57.1938 163.278 58.2295 163.7 58.9114C164.123 59.5934 164.776 59.9344 165.662 59.9344C167.378 59.9344 168.237 58.5577 168.237 55.8044ZM191.03 58.6163C191.03 59.456 190.87 60.1532 190.549 60.7003C190.227 61.25 189.786 61.6826 189.221 62.0006C188.656 62.3187 187.987 62.5426 187.209 62.6699C186.43 62.7971 185.587 62.8607 184.674 62.8607C183.949 62.8607 183.299 62.8353 182.723 62.7844C182.145 62.7335 181.524 62.6699 180.853 62.5935V48.9161C181.364 48.8398 181.918 48.7762 182.522 48.7253C183.125 48.6744 183.831 48.6489 184.634 48.6489C185.397 48.6489 186.111 48.71 186.778 48.8296C187.441 48.9517 188.022 49.1553 188.517 49.4429C189.012 49.7279 189.406 50.1121 189.692 50.5905C189.981 51.0689 190.126 51.6719 190.126 52.3972C190.126 52.9952 189.984 53.5423 189.703 54.0334C189.422 54.5245 189.066 54.9036 188.638 55.1708C188.945 55.2853 189.243 55.4355 189.532 55.6187C189.821 55.8044 190.075 56.0335 190.297 56.3083C190.519 56.5831 190.696 56.9114 190.83 57.2931C190.963 57.6773 191.03 58.1175 191.03 58.6163ZM184.332 54.1402H184.896C185.474 54.1402 185.921 54.0283 186.242 53.8044C186.564 53.5804 186.727 53.1962 186.727 52.6465C186.727 52.3794 186.668 52.1554 186.556 51.9773C186.441 51.7992 186.296 51.6592 186.122 51.5574C185.948 51.4557 185.753 51.3869 185.539 51.3462C185.325 51.3081 185.116 51.2903 184.915 51.2903C184.835 51.2903 184.738 51.2903 184.623 51.2903C184.508 51.2903 184.412 51.2954 184.332 51.3081V54.1402ZM184.332 56.8554V60.0693C184.425 60.082 184.543 60.0922 184.685 60.0972C184.827 60.1023 185.009 60.1049 185.239 60.1049C185.493 60.1049 185.753 60.0794 186.012 60.0285C186.275 59.9776 186.513 59.8911 186.727 59.769C186.941 59.6469 187.112 59.4814 187.238 59.2702C187.367 59.059 187.431 58.7969 187.431 58.4763C187.431 57.8631 187.219 57.4406 186.796 57.204C186.374 56.9673 185.828 56.8503 185.156 56.8503H184.332V56.8554ZM207.326 55.4584C207.326 55.9062 207.264 56.4024 207.144 56.9521H203.261V59.6672H208.311C208.431 60.2041 208.493 60.6876 208.493 61.1202C208.493 61.5935 208.431 62.0948 208.311 62.6317H199.699V48.8779H208.188C208.241 49.1578 208.281 49.4199 208.308 49.6617C208.335 49.906 208.348 50.135 208.348 50.3513C208.348 50.7712 208.295 51.2775 208.188 51.8628H203.258V53.9672H207.141C207.264 54.5296 207.326 55.0258 207.326 55.4584ZM217.143 48.9187C217.45 48.8805 217.924 48.8245 218.561 48.7558C219.198 48.6845 220.001 48.6489 220.964 48.6489C221.676 48.6489 222.393 48.7125 223.116 48.8398C223.841 48.967 224.494 49.2062 225.078 49.5574C225.661 49.9085 226.132 50.4022 226.496 51.0409C226.857 51.6796 227.039 52.5066 227.039 53.527C227.039 54.4329 226.895 55.1861 226.606 55.7841C226.317 56.3846 225.934 56.863 225.458 57.2193C224.981 57.5781 224.438 57.8325 223.828 57.9852C223.218 58.1379 222.591 58.2142 221.946 58.2142C221.692 58.2142 221.435 58.2066 221.173 58.1862C220.911 58.1684 220.729 58.1455 220.619 58.1201V62.5757C220.271 62.6393 219.955 62.6851 219.674 62.7106C219.393 62.736 219.131 62.7488 218.89 62.7488C218.422 62.7488 217.838 62.6928 217.14 62.5757V48.9187H217.143ZM220.622 55.382C220.689 55.4075 220.804 55.4253 220.964 55.438C221.125 55.4507 221.293 55.4558 221.467 55.4558C222.045 55.4558 222.514 55.2981 222.875 54.9774C223.236 54.6594 223.418 54.1733 223.418 53.5244C223.418 53.1427 223.362 52.8196 223.247 52.5575C223.132 52.2954 222.974 52.0867 222.776 51.9264C222.575 51.7687 222.34 51.6541 222.072 51.5931C221.802 51.5295 221.521 51.4964 221.227 51.4964C221.146 51.4964 221.053 51.4964 220.946 51.4964C220.838 51.4964 220.731 51.5015 220.624 51.5142V55.382H220.622ZM246.595 62.5732C245.993 62.6902 245.447 62.7462 244.965 62.7462C244.483 62.7462 243.945 62.6902 243.356 62.5732V55.1123L238.67 62.5732C238.55 62.5986 238.355 62.6342 238.087 62.68C237.819 62.7233 237.517 62.7462 237.182 62.7462C236.888 62.7462 236.612 62.7284 236.358 62.6902C236.104 62.6521 235.908 62.6139 235.775 62.5732L235.756 48.9161C236.037 48.8652 236.307 48.827 236.561 48.8016C236.816 48.7762 237.057 48.7634 237.287 48.7634C237.517 48.7634 237.768 48.7762 238.052 48.8016C238.333 48.827 238.649 48.8652 238.997 48.9161V56.4126L243.664 48.9161C243.852 48.8779 244.076 48.8423 244.339 48.8092C244.601 48.7787 244.852 48.7609 245.093 48.7609C245.321 48.7609 245.556 48.7736 245.797 48.7991C246.038 48.8245 246.306 48.8627 246.603 48.9136V62.5732H246.595ZM263.474 55.4584C263.474 55.9062 263.412 56.4024 263.292 56.9521H259.409V59.6672H264.459C264.579 60.2041 264.641 60.6876 264.641 61.1202C264.641 61.5935 264.579 62.0948 264.459 62.6317H255.847V48.8779H264.336C264.389 49.1578 264.429 49.4199 264.456 49.6617C264.483 49.906 264.496 50.135 264.496 50.3513C264.496 50.7712 264.443 51.2775 264.336 51.8628H259.406V53.9672H263.289C263.412 54.5296 263.474 55.0258 263.474 55.4584ZM275.924 51.8628H272.565C272.445 51.3132 272.386 50.8119 272.386 50.3513C272.386 49.9314 272.445 49.4403 272.565 48.8779H282.845C282.898 49.1578 282.938 49.4199 282.965 49.6617C282.992 49.906 283.005 50.135 283.005 50.3513C283.005 50.7712 282.952 51.2775 282.845 51.8628H279.486V62.5732C278.774 62.6902 278.185 62.7462 277.717 62.7462C277.222 62.7462 276.625 62.6902 275.927 62.5732V51.8628H275.924ZM290.37 55.8044C290.37 54.784 290.493 53.8374 290.742 52.9621C290.991 52.0893 291.371 51.3335 291.89 50.6974C292.407 50.0587 293.063 49.5599 293.86 49.196C294.658 48.8321 295.608 48.6489 296.708 48.6489C297.808 48.6489 298.752 48.8296 299.544 49.196C300.334 49.5599 300.99 50.0587 301.506 50.6974C302.023 51.3335 302.403 52.0893 302.654 52.9621C302.903 53.8349 303.026 54.7815 303.026 55.8044C303.026 56.8248 302.903 57.7638 302.654 58.6239C302.405 59.484 302.023 60.2321 301.506 60.8632C300.99 61.4943 300.337 61.9854 299.544 62.3365C298.752 62.6877 297.808 62.8633 296.708 62.8633C295.608 62.8633 294.66 62.6877 293.86 62.3365C293.063 61.9854 292.404 61.4943 291.89 60.8632C291.374 60.2321 290.991 59.484 290.742 58.6239C290.493 57.7638 290.37 56.8248 290.37 55.8044ZM299.282 55.8044C299.282 53.0257 298.431 51.6338 296.726 51.6338C294.981 51.6338 294.112 53.0232 294.112 55.8044C294.112 57.1938 294.323 58.2295 294.746 58.9114C295.169 59.5934 295.822 59.9344 296.708 59.9344C298.423 59.9344 299.282 58.5577 299.282 55.8044Z" fill="url(#paint0_linear_732_1539)"/>
<path d="M148.676 57.1684V48.6184H141.458L141.225 49.9874C140.931 51.7101 140.738 52.8476 140.393 54.611C140.083 56.1912 139.802 56.8885 139.662 57.1658H138.501L138.691 63.1177H142.058V60.3746H146.251V63.1177H149.615L149.8 58.9801V57.1633H148.676V57.1684ZM145.103 51.8272V57.1684H143.313C143.487 56.634 143.645 55.9978 143.8 55.2039C143.974 54.3235 144.092 53.6161 144.215 52.8908L144.231 52.8018C144.284 52.4863 144.335 52.1656 144.397 51.8246H145.103V51.8272Z" fill="url(#paint1_linear_732_1539)"/>
<path d="M120.156 41.9528C119.353 39.6345 118.411 37.3863 117.316 35.2153C117.212 35.0196 117.113 34.8167 117.009 34.6227C116.919 34.4593 116.839 34.287 116.742 34.1235C116.645 33.9206 116.539 33.7249 116.425 33.531C115.955 32.6726 115.46 31.8215 114.94 30.9865C114.722 30.6202 114.487 30.252 114.25 29.8857C114.218 29.839 114.185 29.7923 114.153 29.7457C113.918 29.3793 113.675 29.0112 113.423 28.6521C113.116 28.2157 112.808 27.7776 112.491 27.3412C112.224 26.9749 111.955 26.6068 111.672 26.2477C111.161 25.5761 110.635 24.9206 110.083 24.2724C109.782 23.9061 109.467 23.538 109.15 23.1788C107.602 21.4154 105.93 19.7365 104.171 18.1599C104.009 17.9965 103.847 17.8474 103.677 17.7073C89.5337 5.21652 69.1229 -1.51911 47.4959 0.290944C44.4386 0.540545 41.3495 0.96971 38.2437 1.57127C24.2796 4.31149 9.70735 11.3129 0 19.4402V46.1062C4.73616 38.9863 11.0691 32.6565 18.635 27.5262V34.4342C19.1946 34.278 19.771 34.1218 20.3455 33.9889V26.3931C22.6642 24.917 25.0985 23.5595 27.6279 22.3097V32.9653C28.195 32.9258 28.7714 32.9025 29.3384 32.8881V21.4765C31.6907 20.3919 34.1231 19.415 36.6283 18.5567V33.2095C37.2047 33.2634 37.7792 33.3263 38.3388 33.4053V18.0036C40.706 17.2459 43.1309 16.5904 45.6212 16.0445V34.6928C46.2051 34.8257 46.7815 34.9585 47.3317 35.0914V15.6621C47.3802 15.6549 47.4362 15.6387 47.4866 15.6315C49.878 15.17 52.2544 14.8127 54.6141 14.5613V36.9733C55.3192 37.1457 55.9031 37.2786 56.3172 37.3396H56.3247V14.4051C61.5384 13.9526 66.6718 14.0226 71.6673 14.5685C76.8008 15.1233 81.7794 16.1846 86.5156 17.7073H74.7563C74.4728 17.4111 74.1893 17.1148 73.8964 16.8257C73.085 16.7089 72.2586 16.5994 71.4397 16.5132C67.3844 16.0679 63.2657 15.9512 59.1619 16.1613C63.5324 17.7307 68.7461 20.4009 72.4768 22.9454C72.5906 23.0226 72.7044 23.1016 72.8182 23.1788C73.2323 23.4607 73.6296 23.7409 74.027 24.0372C74.1333 24.1144 74.2378 24.1934 74.3347 24.2706C75.1854 24.8955 76.021 25.5581 76.8325 26.2459C77.2615 26.605 77.6831 26.9713 78.0972 27.3394C78.5747 27.7686 79.0373 28.2068 79.4999 28.6503C79.873 29.0094 80.2293 29.3686 80.5949 29.7439C80.6434 29.7905 80.6844 29.8372 80.7329 29.8839C81.0892 30.2431 81.438 30.6094 81.7701 30.9847C82.533 31.8035 83.2624 32.6547 83.9675 33.5292C84.1298 33.7249 84.2846 33.9188 84.4376 34.1218C84.5756 34.2852 84.7043 34.4576 84.8349 34.621C84.9897 34.8167 85.1352 35.0106 85.2807 35.2135C85.8235 35.9318 86.3421 36.6662 86.8457 37.4151C86.5697 36.6734 86.2861 35.939 85.9783 35.2135H114.742C116.733 37.3324 118.542 39.5717 120.156 41.9528ZM79.2929 23.1788C79.2369 23.1016 79.1791 23.0226 79.1231 22.9454C78.4012 21.9542 77.6476 20.9935 76.8605 20.0651C76.5527 19.6988 76.2356 19.3307 75.911 18.9715C75.8625 18.9176 75.8047 18.8548 75.7562 18.7991H89.6792C89.8341 18.853 89.987 18.9158 90.1418 18.9715C91.0577 19.3235 91.9587 19.6826 92.8504 20.0651C94.8855 20.9324 96.8721 21.8913 98.7859 22.9454C98.924 23.0226 99.0695 23.1016 99.2075 23.1788H79.2929ZM82.0499 27.3394C81.8316 26.9731 81.6041 26.605 81.3765 26.2459C80.9475 25.5743 80.5166 24.9117 80.0707 24.2706H101.114C102.177 24.8955 103.214 25.5581 104.227 26.2459C104.755 26.605 105.274 26.9641 105.792 27.3394C106.384 27.7686 106.967 28.2068 107.544 28.6503H82.8128C82.561 28.2068 82.3092 27.7686 82.0499 27.3394ZM85.5288 34.1235C85.4486 33.9206 85.3497 33.7249 85.2621 33.531C84.889 32.6637 84.4842 31.8215 84.0533 30.9865C83.8742 30.6112 83.6802 30.2449 83.4862 29.8857C83.462 29.839 83.4377 29.7923 83.4135 29.7457H108.909C108.975 29.7923 109.031 29.839 109.088 29.8857C109.527 30.2377 109.956 30.604 110.377 30.9865C111.317 31.7981 112.235 32.6493 113.118 33.531C113.321 33.7267 113.515 33.9206 113.718 34.1235H85.5288Z" fill="url(#paint2_linear_732_1539)"/>
<defs>
<linearGradient id="paint0_linear_732_1539" x1="138.02" y1="55.7557" x2="301.711" y2="55.7557" gradientUnits="userSpaceOnUse">
<stop stop-color="#C258F8"/>
<stop offset="0.6107" stop-color="#981FFC"/>
<stop offset="1" stop-color="#8000FF"/>
</linearGradient>
<linearGradient id="paint1_linear_732_1539" x1="138.02" y1="55.87" x2="301.711" y2="55.87" gradientUnits="userSpaceOnUse">
<stop stop-color="#C258F8"/>
<stop offset="0.6107" stop-color="#981FFC"/>
<stop offset="1" stop-color="#8000FF"/>
</linearGradient>
<linearGradient id="paint2_linear_732_1539" x1="6.27658" y1="15.613" x2="96.0844" y2="42.8075" gradientUnits="userSpaceOnUse">
<stop stop-color="#C258F8"/>
<stop offset="0.6107" stop-color="#981FFC"/>
<stop offset="1" stop-color="#8000FF"/>
</linearGradient>
</defs>
</svg>
