<svg width="33" height="38" viewBox="0 0 33 38" fill="none" xmlns="http://www.w3.org/2000/svg">
<path fill-rule="evenodd" clip-rule="evenodd" d="M29.1343 0C31.2651 0 33 1.748 33 3.914V38L28.9457 34.39L26.664 32.262L24.2503 30.001L25.2497 33.516H3.86571C1.73486 33.516 0 31.768 0 29.602V3.914C0 1.748 1.73486 0 3.86571 0H29.1343V0ZM21.8554 24.814C26.0229 24.681 27.6257 21.926 27.6257 21.926C27.6257 15.808 24.9103 10.849 24.9103 10.849C22.1949 8.797 19.6114 8.854 19.6114 8.854L19.3474 9.158C22.5531 10.146 24.0429 11.571 24.0429 11.571C22.0817 10.488 20.1583 9.956 18.3669 9.747C17.0091 9.595 15.708 9.633 14.5577 9.785L14.2371 9.823C13.5771 9.88 11.9743 10.127 9.95657 11.02C9.25886 11.343 8.844 11.571 8.844 11.571C8.844 11.571 10.4091 10.07 13.8034 9.082L13.6149 8.854C13.6149 8.854 11.0314 8.797 8.316 10.849C8.316 10.849 5.60057 15.808 5.60057 21.926C5.60057 21.926 7.18457 24.681 11.352 24.814C11.352 24.814 12.0497 23.959 12.6154 23.237C10.2206 22.515 9.31543 20.995 9.31543 20.995L9.84343 21.318L9.91886 21.375L9.99271 21.4178L10.0147 21.4272L10.0886 21.47C10.56 21.736 11.0314 21.945 11.4651 22.116C12.2383 22.42 13.1623 22.724 14.2371 22.933C15.6514 23.199 17.3109 23.294 19.1211 22.952C20.0074 22.8 20.9126 22.534 21.8554 22.135C22.5154 21.888 23.2509 21.527 24.024 21.014C24.024 21.014 23.0811 22.572 20.6109 23.275C21.1766 23.997 21.8554 24.814 21.8554 24.814ZM13.0869 15.941C12.012 15.941 11.1634 16.891 11.1634 18.05C11.1634 19.209 12.0309 20.159 13.0869 20.159C14.1617 20.159 15.0103 19.209 15.0103 18.05C15.0291 16.891 14.1617 15.941 13.0869 15.941ZM19.9697 15.941C18.8949 15.941 18.0463 16.891 18.0463 18.05C18.0463 19.209 18.9137 20.159 19.9697 20.159C21.0446 20.159 21.8931 19.209 21.8931 18.05C21.8931 16.891 21.0446 15.941 19.9697 15.941Z" fill="#042B57"/>
</svg>
