<svg width="32" height="34" viewBox="0 0 32 34" fill="none" xmlns="http://www.w3.org/2000/svg">
<path fill-rule="evenodd" clip-rule="evenodd" d="M17.254 19.4721C17.254 19.4721 17.8543 19.526 18.1763 19.1222L18.8061 18.3246C19.1098 17.928 19.8438 17.6758 20.5622 18.0781C21.5126 18.6193 22.7415 19.4693 23.5836 20.2612C24.0476 20.655 24.1559 21.2358 23.8395 21.8493L23.8367 21.862C23.5105 22.44 23.0761 22.9826 22.5264 23.4883L22.5137 23.4968C21.8951 24.0167 21.1836 24.3185 20.423 24.0691L20.409 24.0493C19.0423 23.6597 15.7636 21.9753 13.6743 20.2966C10.2564 17.5795 7.8269 13.0972 7.15484 10.6946L7.13375 10.6804C6.8863 9.91119 7.18859 9.19437 7.70177 8.57246L7.71161 8.56113C8.21354 8.00722 8.75062 7.56806 9.32567 7.24081L9.33832 7.23798C9.9457 6.91924 10.5222 7.0269 10.9144 7.49581C11.4304 8.03272 12.3991 9.3247 13.0796 10.5402C13.4789 11.2627 13.2287 12.0036 12.8364 12.3082L12.0434 12.9428C11.6441 13.2686 11.6961 13.8735 11.6961 13.8735C11.6961 13.8735 12.8687 18.3445 17.254 19.4721ZM24.1531 15.7662C23.9183 15.7662 23.7271 15.5749 23.7256 15.3384C23.706 12.7459 22.9327 10.6804 21.4283 9.20145C19.9211 7.72106 18.016 6.96173 15.7664 6.94615C15.5302 6.94473 15.3404 6.75065 15.3432 6.51266C15.3446 6.27608 15.5344 6.08625 15.7692 6.08625H15.7721C18.2494 6.10325 20.3527 6.94473 22.0244 8.58521C23.6975 10.2313 24.558 12.5022 24.5791 15.3327C24.5805 15.5693 24.3921 15.7633 24.1559 15.7662H24.1531ZM21.9105 14.8822H21.9007C21.6645 14.8765 21.4775 14.6796 21.4831 14.443C21.5169 12.9726 21.0993 11.7826 20.2093 10.8037C19.3235 9.82761 18.1074 9.29495 16.4905 9.17595C16.2557 9.15753 16.0786 8.95212 16.0954 8.71554C16.1137 8.47896 16.3176 8.30046 16.5524 8.31746C18.3717 8.45204 19.8142 9.09378 20.8392 10.2228C21.8698 11.3562 22.3745 12.7827 22.3365 14.4615C22.3309 14.6952 22.1411 14.8822 21.9105 14.8822ZM19.72 14.1427C19.4937 14.1427 19.3053 13.9642 19.294 13.7333C19.2223 12.2742 18.539 11.5602 17.1471 11.4837C16.9109 11.4709 16.7309 11.2683 16.7436 11.0318C16.7562 10.7938 16.9559 10.6124 17.1921 10.6252C19.0311 10.7243 20.0518 11.7854 20.146 13.6908C20.1587 13.9274 19.9773 14.13 19.7411 14.1413L19.72 14.1427ZM29.3046 19.057C28.4539 25.966 23.4388 26.4023 22.5137 26.7013C22.12 26.8288 18.4617 27.7453 13.8642 27.4436C13.8642 27.4436 10.4364 31.6085 9.36644 32.6922C9.19913 32.8608 9.0037 32.9288 8.87154 32.8977C8.68736 32.8523 8.63674 32.6313 8.63955 32.3112L8.66767 26.6219V26.6205C1.97243 24.7463 2.36188 17.7027 2.4378 14.0152C2.51373 10.3277 3.20125 7.30598 5.24413 5.27451C8.91372 1.92556 16.4736 2.42564 16.4736 2.42564C22.8582 2.45397 25.9176 4.39052 26.6276 5.03935C28.9826 7.07082 30.1819 11.9342 29.3046 19.057ZM28.3879 3.31388C27.5485 2.53755 24.1601 0.0584265 16.6128 0.0244271C16.6128 0.0244271 7.71302 -0.516731 3.37418 3.49521C0.958719 5.929 0.109512 9.48903 0.0195292 13.9047C-0.0690471 18.3218 -0.185743 26.595 7.72989 28.839L7.73832 28.8418L7.7327 32.2644C7.7327 32.2644 7.68349 33.6513 8.58894 33.9346C9.68419 34.2761 10.3267 33.2235 11.3742 32.0873C11.9478 31.464 12.7394 30.5489 13.3383 29.849C18.7527 30.3052 22.9158 29.2583 23.3896 29.1039C24.4821 28.7455 30.6683 27.9479 31.675 19.6733C32.7126 11.1423 31.1717 5.74767 28.3879 3.31388Z" fill="#042B57"/>
</svg>
